<?xml version="1.0" encoding="utf-8"?>
<!-- Generator: Adobe Illustrator 25.0.0, SVG Export Plug-In . SVG Version: 6.00 Build 0)  -->
<svg version="1.1" id="Layer_1" xmlns="http://www.w3.org/2000/svg" xmlns:xlink="http://www.w3.org/1999/xlink" x="0px" y="0px"
	 viewBox="0 0 132 92" style="enable-background:new 0 0 132 92;" xml:space="preserve">
<style type="text/css">
	.st0{fill:url(#SVGID_1_);}
	.st1{fill:#FFFFFF;}
	.st2{fill:url(#SVGID_2_);}
	.st3{fill:url(#SVGID_3_);}
	.st4{fill:none;stroke:#000000;stroke-width:6;stroke-linecap:round;stroke-linejoin:round;}
</style>
<path d="M46,89C22.3,89,3,69.7,3,46c0-1.7,1.3-3,3-3h37.1c1.7-23.7,22.3-41.5,46-39.8C111.5,4.8,129,23.5,129,46c0,1.7-1.3,3-3,3
	H88.9C87.3,71.5,68.6,89,46,89z"/>
<path d="M86,6c22.1,0,40,17.9,40,40H86c0,22.1-17.9,40-40,40S6,68.1,6,46h40C46,23.9,63.9,6,86,6 M86,0C62.9,0,43.4,17.1,40.4,40H6
	c-3.3,0-6,2.7-6,6c0,25.4,20.6,46,46,46c23.1,0,42.6-17.1,45.6-40H126c3.3,0,6-2.7,6-6C132,20.6,111.4,0,86,0z"/>
<linearGradient id="SVGID_1_" gradientUnits="userSpaceOnUse" x1="66.0038" y1="82.6366" x2="125.9995" y2="47.9991" gradientTransform="matrix(1 0 0 -1 0 94)">
	<stop  offset="0" style="stop-color:#F6C113"/>
	<stop  offset="1" style="stop-color:#F1600C"/>
</linearGradient>
<path class="st0" d="M86,46h40c0-22.1-17.9-40-40-40c-7,0-13.9,1.9-20,5.4C78.4,18.5,86,31.7,86,46z"/>
<path class="st1" d="M46,46h40c0-14.3-7.6-27.5-20-34.6C53.6,18.5,46,31.7,46,46z"/>
<linearGradient id="SVGID_2_" gradientUnits="userSpaceOnUse" x1="40.9959" y1="39.3404" x2="75.6488" y2="19.3387" gradientTransform="matrix(1 0 0 -1 0 94)">
	<stop  offset="0" style="stop-color:#00A3F7"/>
	<stop  offset="1" style="stop-color:#0343E7"/>
</linearGradient>
<path class="st2" d="M46,46h40c0,22.1-17.9,40-40,40c-7,0-13.9-1.8-20-5.4C38.4,73.5,46,60.3,46,46z"/>
<linearGradient id="SVGID_3_" gradientUnits="userSpaceOnUse" x1="6.0004" y1="48.0008" x2="40.6408" y2="28.0006" gradientTransform="matrix(1 0 0 -1 0 94)">
	<stop  offset="0" style="stop-color:#00A3F7"/>
	<stop  offset="1" style="stop-color:#0343E7"/>
</linearGradient>
<path class="st3" d="M6,46h40c0,14.3-7.6,27.5-20,34.6C13.6,73.5,6,60.3,6,46z"/>
<path class="st4" d="M60.7,34c0-2.9,2.4-5.3,5.3-5.3s5.3,2.4,5.3,5.3l0,0"/>
</svg>
